{
  "accessors": [
    {
      "bufferView": 2,
      "componentType": 5126,
      "count": 2311,
      "max": [
        43.20100021362305,
        19.347999572753906,
        157.802001953125
      ],
      "min": [
        -43.20100021362305,
        -9.003999710083008,
        37.77130126953125
      ],
      "type": "VEC3"
    },
    {
      "bufferView": 2,
      "byteOffset": 27732,
      "componentType": 5126,
      "count": 2311,
      "max": [
        1.0,
        1.0,
        1.0
      ],
      "min": [
        -1.0,
        -1.0,
        -1.0
      ],
      "type": "VEC3"
    },
    {
      "bufferView": 1,
      "componentType": 5126,
      "count": 2311,
      "max": [
        0.9955999851226807,
        0.9961000084877014
      ],
      "min": [
        0.003599999938160181,
        0.002400000113993883
      ],
      "type": "VEC2"
    },
    {
      "bufferView": 0,
      "componentType": 5125,
      "count": 9999,
      "type": "SCALAR"
    },
    {
      "bufferView": 2,
      "byteOffset": 55464,
      "componentType": 5126,
      "count": 93,
      "max": [
        9.271599769592285,
        18.8262996673584,
        138.67799377441406
      ],
      "min": [
        -33.394100189208984,
        -6.246699810028076,
        87.38939666748047
      ],
      "type": "VEC3"
    },
    {
      "bufferView": 2,
      "byteOffset": 56580,
      "componentType": 5126,
      "count": 93,
      "max": [
        0.9998587369918823,
        0.9847992658615112,
        0.9847069382667542
      ],
      "min": [
        -0.9998587369918823,
        -0.9997190833091736,
        -0.9772622585296631
      ],
      "type": "VEC3"
    },
    {
      "bufferView": 1,
      "byteOffset": 18488,
      "componentType": 5126,
      "count": 93,
      "max": [
        0.41990000009536743,
        0.8075000047683716
      ],
      "min": [
        0.011800000444054604,
        0.06930000334978104
      ],
      "type": "VEC2"
    },
    {
      "bufferView": 0,
      "byteOffset": 39996,
      "componentType": 5125,
      "count": 243,
      "type": "SCALAR"
    },
    {
      "bufferView": 2,
      "byteOffset": 57696,
      "componentType": 5126,
      "count": 2266,
      "max": [
        47.631500244140625,
        40.224098205566406,
        113.89700317382813
      ],
      "min": [
        -47.631500244140625,
        -21.570899963378906,
        0.0
      ],
      "type": "VEC3"
    },
    {
      "bufferView": 2,
      "byteOffset": 84888,
      "componentType": 5126,
      "count": 2266,
      "max": [
        1.0,
        1.0,
        1.0
      ],
      "min": [
        -1.0,
        -1.0,
        -1.0
      ],
      "type": "VEC3"
    },
    {
      "bufferView": 1,
      "byteOffset": 19232,
      "componentType": 5126,
      "count": 2266,
      "max": [
        -0.006800000090152025,
        0.9912999868392944
      ],
      "min": [
        -0.9990000128746033,
        0.004399999976158142
      ],
      "type": "VEC2"
    },
    {
      "bufferView": 0,
      "byteOffset": 40968,
      "componentType": 5125,
      "count": 9999,
      "type": "SCALAR"
    },
    {
      "bufferView": 2,
      "byteOffset": 112080,
      "componentType": 5126,
      "count": 199,
      "max": [
        45.99620056152344,
        16.731599807739258,
        99.1312026977539
      ],
      "min": [
        -16.503000259399414,
        -9.517200469970703,
        57.72669982910156
      ],
      "type": "VEC3"
    },
    {
      "bufferView": 2,
      "byteOffset": 114468,
      "componentType": 5126,
      "count": 199,
      "max": [
        0.9991138577461243,
        0.9997041821479797,
        0.49670690298080444
      ],
      "min": [
        -0.9987769722938538,
        -1.0,
        -0.9681361317634583
      ],
      "type": "VEC3"
    },
    {
      "bufferView": 1,
      "byteOffset": 37360,
      "componentType": 5126,
      "count": 199,
      "max": [
        -0.15219999849796295,
        0.6355000138282776
      ],
      "min": [
        -0.9634000062942505,
        0.322299987077713
      ],
      "type": "VEC2"
    },
    {
      "bufferView": 0,
      "byteOffset": 80964,
      "componentType": 5125,
      "count": 627,
      "type": "SCALAR"
    },
    {
      "bufferView": 2,
      "byteOffset": 116856,
      "componentType": 5126,
      "count": 2155,
      "max": [
        36.189300537109375,
        47.232601165771484,
        223.42979431152344
      ],
      "min": [
        -36.189300537109375,
        -29.693500518798828,
        151.83290100097656
      ],
      "type": "VEC3"
    },
    {
      "bufferView": 2,
      "byteOffset": 142716,
      "componentType": 5126,
      "count": 2155,
      "max": [
        0.9994985461235046,
        1.0,
        0.9999984502792358
      ],
      "min": [
        -0.9994985461235046,
        -0.9999890327453613,
        -0.9999982118606567
      ],
      "type": "VEC3"
    },
    {
      "bufferView": 1,
      "byteOffset": 38952,
      "componentType": 5126,
      "count": 2155,
      "max": [
        0.9945999979972839,
        -0.005900000222027302
      ],
      "min": [
        0.00570000009611249,
        -0.9961000084877014
      ],
      "type": "VEC2"
    },
    {
      "bufferView": 0,
      "byteOffset": 83472,
      "componentType": 5125,
      "count": 9534,
      "type": "SCALAR"
    },
    {
      "bufferView": 2,
      "byteOffset": 168576,
      "componentType": 5126,
      "count": 118,
      "max": [
        11.622300148010254,
        -4.055799961090088,
        193.56680297851563
      ],
      "min": [
        -11.622300148010254,
        -8.659899711608887,
        183.268798828125
      ],
      "type": "VEC3"
    },
    {
      "bufferView": 2,
      "byteOffset": 169992,
      "componentType": 5126,
      "count": 118,
      "max": [
        0.9000120759010315,
        -0.4354058802127838,
        0.4710939824581146
      ],
      "min": [
        -0.9000120759010315,
        -0.9941424131393433,
        -0.22429589927196503
      ],
      "type": "VEC3"
    },
    {
      "bufferView": 1,
      "byteOffset": 56192,
      "componentType": 5126,
      "count": 118,
      "max": [
        0.8389000296592712,
        0.7415000200271606
      ],
      "min": [
        0.10100000351667404,
        0.24120000004768372
      ],
      "type": "VEC2"
    },
    {
      "bufferView": 0,
      "byteOffset": 121608,
      "componentType": 5125,
      "count": 528,
      "type": "SCALAR"
    }
  ],
  "asset": {
    "extras": {
      "author": "Neut2000 (https://sketchfab.com/Neut2000)",
      "license": "CC-BY-4.0 (http://creativecommons.org/licenses/by/4.0/)",
      "source": "https://sketchfab.com/3d-models/disney-infinity-woody-15be6200d75d46119482b2ce0d3c1d61",
      "title": "Disney Infinity Woody"
    },
    "generator": "Sketchfab-11.8.0",
    "version": "2.0"
  },
  "bufferViews": [
    {
      "buffer": 0,
      "byteLength": 123720,
      "name": "floatBufferViews",
      "target": 34963
    },
    {
      "buffer": 0,
      "byteLength": 57136,
      "byteOffset": 123720,
      "byteStride": 8,
      "name": "floatBufferViews",
      "target": 34962
    },
    {
      "buffer": 0,
      "byteLength": 171408,
      "byteOffset": 180856,
      "byteStride": 12,
      "name": "floatBufferViews",
      "target": 34962
    }
  ],
  "buffers": [
    {
      "byteLength": 352264,
      "uri": "scene.bin"
    }
  ],
  "images": [
    {
      "uri": "textures/Material__42_baseColor.png"
    },
    {
      "uri": "textures/Material__44_baseColor.png"
    },
    {
      "uri": "textures/Material__45_baseColor.png"
    },
    {
      "uri": "textures/Material__46_baseColor.png"
    }
  ],
  "materials": [
    {
      "doubleSided": true,
      "emissiveTexture": {
        "index": 0
      },
      "name": "Material__42",
      "pbrMetallicRoughness": {
        "baseColorTexture": {
          "index": 0
        },
        "metallicFactor": 0.0
      }
    },
    {
      "doubleSided": true,
      "emissiveTexture": {
        "index": 1
      },
      "name": "Material__44",
      "pbrMetallicRoughness": {
        "baseColorTexture": {
          "index": 1
        },
        "metallicFactor": 0.0
      }
    },
    {
      "doubleSided": true,
      "emissiveTexture": {
        "index": 2
      },
      "name": "Material__45",
      "pbrMetallicRoughness": {
        "baseColorTexture": {
          "index": 2
        },
        "metallicFactor": 0.0
      }
    },
    {
      "doubleSided": true,
      "emissiveTexture": {
        "index": 3
      },
      "name": "Material__46",
      "pbrMetallicRoughness": {
        "baseColorTexture": {
          "index": 3
        },
        "metallicFactor": 0.0
      }
    }
  ],
  "meshes": [
    {
      "name": "Object_0",
      "primitives": [
        {
          "attributes": {
            "NORMAL": 1,
            "POSITION": 0,
            "TEXCOORD_0": 2
          },
          "indices": 3,
          "material": 0,
          "mode": 4
        }
      ]
    },
    {
      "name": "Object_1",
      "primitives": [
        {
          "attributes": {
            "NORMAL": 5,
            "POSITION": 4,
            "TEXCOORD_0": 6
          },
          "indices": 7,
          "material": 0,
          "mode": 4
        }
      ]
    },
    {
      "name": "Object_2",
      "primitives": [
        {
          "attributes": {
            "NORMAL": 9,
            "POSITION": 8,
            "TEXCOORD_0": 10
          },
          "indices": 11,
          "material": 1,
          "mode": 4
        }
      ]
    },
    {
      "name": "Object_3",
      "primitives": [
        {
          "attributes": {
            "NORMAL": 13,
            "POSITION": 12,
            "TEXCOORD_0": 14
          },
          "indices": 15,
          "material": 1,
          "mode": 4
        }
      ]
    },
    {
      "name": "Object_4",
      "primitives": [
        {
          "attributes": {
            "NORMAL": 17,
            "POSITION": 16,
            "TEXCOORD_0": 18
          },
          "indices": 19,
          "material": 2,
          "mode": 4
        }
      ]
    },
    {
      "name": "Object_5",
      "primitives": [
        {
          "attributes": {
            "NORMAL": 21,
            "POSITION": 20,
            "TEXCOORD_0": 22
          },
          "indices": 23,
          "material": 3,
          "mode": 4
        }
      ]
    }
  ],
  "nodes": [
    {
      "children": [
        1
      ],
      "matrix": [
        1.0,
        0.0,
        0.0,
        0.0,
        0.0,
        2.220446049250313e-16,
        -1.0,
        0.0,
        0.0,
        1.0,
        2.220446049250313e-16,
        0.0,
        0.0,
        0.0,
        0.0,
        1.0
      ],
      "name": "Sketchfab_model"
    },
    {
      "children": [
        2,
        3,
        4,
        5,
        6,
        7
      ],
      "name": "Woody.obj.cleaner.materialmerger.gles"
    },
    {
      "mesh": 0,
      "name": "Object_2"
    },
    {
      "mesh": 1,
      "name": "Object_3"
    },
    {
      "mesh": 2,
      "name": "Object_4"
    },
    {
      "mesh": 3,
      "name": "Object_5"
    },
    {
      "mesh": 4,
      "name": "Object_6"
    },
    {
      "mesh": 5,
      "name": "Object_7"
    }
  ],
  "samplers": [
    {
      "magFilter": 9729,
      "minFilter": 9987,
      "wrapS": 10497,
      "wrapT": 10497
    }
  ],
  "scene": 0,
  "scenes": [
    {
      "name": "Sketchfab_Scene",
      "nodes": [
        0
      ]
    }
  ],
  "textures": [
    {
      "sampler": 0,
      "source": 0
    },
    {
      "sampler": 0,
      "source": 1
    },
    {
      "sampler": 0,
      "source": 2
    },
    {
      "sampler": 0,
      "source": 3
    }
  ]
}
