{
  "accessors": [
    {
      "bufferView": 2,
      "componentType": 5126,
      "count": 16178,
      "max": [
        0.16306447982788086,
        0.1630660444498062,
        0.30994388461112976
      ],
      "min": [
        -0.16306743025779724,
        -0.16306573152542114,
        -0.3101997673511505
      ],
      "type": "VEC3"
    },
    {
      "bufferView": 2,
      "byteOffset": 194136,
      "componentType": 5126,
      "count": 16178,
      "max": [
        1.0,
        1.0,
        1.0
      ],
      "min": [
        -1.0,
        -1.0,
        -1.0
      ],
      "type": "VEC3"
    },
    {
      "bufferView": 1,
      "componentType": 5126,
      "count": 16178,
      "max": [
        0.9560145139694214,
        0.5725057125091553
      ],
      "min": [
        0.8687405586242676,
        0.04791513830423355
      ],
      "type": "VEC2"
    },
    {
      "bufferView": 0,
      "componentType": 5125,
      "count": 43008,
      "type": "SCALAR"
    },
    {
      "bufferView": 2,
      "byteOffset": 388272,
      "componentType": 5126,
      "count": 11296,
      "max": [
        0.29056107997894287,
        -0.18357941508293152,
        0.22366288304328918
      ],
      "min": [
        -0.28376835584640503,
        -0.9441837668418884,
        -0.20613710582256317
      ],
      "type": "VEC3"
    },
    {
      "bufferView": 2,
      "byteOffset": 523824,
      "componentType": 5126,
      "count": 11296,
      "max": [
        1.0,
        1.0,
        1.0
      ],
      "min": [
        -1.0,
        -1.0,
        -1.0
      ],
      "type": "VEC3"
    },
    {
      "bufferView": 1,
      "byteOffset": 129424,
      "componentType": 5126,
      "count": 11296,
      "max": [
        0.5182839035987854,
        0.8645172715187073
      ],
      "min": [
        0.3328683376312256,
        0.6867885589599609
      ],
      "type": "VEC2"
    },
    {
      "bufferView": 0,
      "byteOffset": 172032,
      "componentType": 5125,
      "count": 58704,
      "type": "SCALAR"
    },
    {
      "bufferView": 2,
      "byteOffset": 659376,
      "componentType": 5126,
      "count": 6841,
      "max": [
        0.13139304518699646,
        0.13139112293720245,
        0.24279864132404327
      ],
      "min": [
        -0.13139241933822632,
        -0.13139067590236664,
        -0.24309654533863068
      ],
      "type": "VEC3"
    },
    {
      "bufferView": 2,
      "byteOffset": 741468,
      "componentType": 5126,
      "count": 6841,
      "max": [
        1.0,
        1.0,
        1.0
      ],
      "min": [
        -1.0,
        -1.0,
        -1.0
      ],
      "type": "VEC3"
    },
    {
      "bufferView": 1,
      "byteOffset": 219792,
      "componentType": 5126,
      "count": 6841,
      "max": [
        0.8687418699264526,
        0.5725057125091553
      ],
      "min": [
        0.8687407970428467,
        0.5725049376487732
      ],
      "type": "VEC2"
    },
    {
      "bufferView": 0,
      "byteOffset": 406848,
      "componentType": 5125,
      "count": 19968,
      "type": "SCALAR"
    },
    {
      "bufferView": 2,
      "byteOffset": 823560,
      "componentType": 5126,
      "count": 12731,
      "max": [
        0.08741657435894012,
        -0.12240946292877197,
        0.10281230509281158
      ],
      "min": [
        -0.10265905410051346,
        -0.5386258363723755,
        -0.08727726340293884
      ],
      "type": "VEC3"
    },
    {
      "bufferView": 2,
      "byteOffset": 976332,
      "componentType": 5126,
      "count": 12731,
      "max": [
        1.0,
        1.0,
        1.0
      ],
      "min": [
        -1.0,
        -1.0,
        -1.0
      ],
      "type": "VEC3"
    },
    {
      "bufferView": 1,
      "byteOffset": 274520,
      "componentType": 5126,
      "count": 12731,
      "max": [
        0.665931224822998,
        0.6504291296005249
      ],
      "min": [
        0.6659294366836548,
        0.6504272222518921
      ],
      "type": "VEC2"
    },
    {
      "bufferView": 0,
      "byteOffset": 486720,
      "componentType": 5125,
      "count": 31920,
      "type": "SCALAR"
    },
    {
      "bufferView": 3,
      "componentType": 5126,
      "count": 52,
      "max": [
        2.5
      ],
      "min": [
        0.0
      ],
      "type": "SCALAR"
    },
    {
      "bufferView": 5,
      "componentType": 5126,
      "count": 52,
      "max": [
        0.0,
        0.0,
        0.9998410940170288,
        0.999996542930603
      ],
      "min": [
        0.0,
        0.0,
        -0.9999995231628418,
        0.001017788890749216
      ],
      "type": "VEC4"
    },
    {
      "bufferView": 3,
      "byteOffset": 208,
      "componentType": 5126,
      "count": 3,
      "max": [
        2.5
      ],
      "min": [
        0.0
      ],
      "type": "SCALAR"
    },
    {
      "bufferView": 4,
      "componentType": 5126,
      "count": 3,
      "max": [
        1.0,
        1.0,
        1.0
      ],
      "min": [
        0.9999999403953552,
        0.9999999403953552,
        1.0
      ],
      "type": "VEC3"
    },
    {
      "bufferView": 3,
      "byteOffset": 220,
      "componentType": 5126,
      "count": 32,
      "max": [
        1.2916666269302368
      ],
      "min": [
        0.0
      ],
      "type": "SCALAR"
    },
    {
      "bufferView": 4,
      "byteOffset": 36,
      "componentType": 5126,
      "count": 32,
      "max": [
        7.431931972503662,
        2.328669548034668,
        3.6113269329071045
      ],
      "min": [
        0.9987837076187134,
        0.5000357627868652,
        -3.7012386322021484
      ],
      "type": "VEC3"
    },
    {
      "bufferView": 3,
      "byteOffset": 348,
      "componentType": 5126,
      "count": 32,
      "max": [
        1.2916666269302368
      ],
      "min": [
        0.0
      ],
      "type": "SCALAR"
    },
    {
      "bufferView": 5,
      "byteOffset": 832,
      "componentType": 5126,
      "count": 32,
      "max": [
        0.5690188407897949,
        0.754666268825531,
        0.6689310669898987,
        0.800690770149231
      ],
      "min": [
        0.023279884830117226,
        -0.7467426061630249,
        -0.6548027396202087,
        0.02617129497230053
      ],
      "type": "VEC4"
    },
    {
      "bufferView": 3,
      "byteOffset": 476,
      "componentType": 5126,
      "count": 51,
      "max": [
        2.0833332538604736
      ],
      "min": [
        0.0
      ],
      "type": "SCALAR"
    },
    {
      "bufferView": 5,
      "byteOffset": 1344,
      "componentType": 5126,
      "count": 51,
      "max": [
        0.0,
        0.0,
        0.999841034412384,
        0.999996542930603
      ],
      "min": [
        0.0,
        0.0,
        -0.9999995231628418,
        0.0010177886579185724
      ],
      "type": "VEC4"
    }
  ],
  "animations": [
    {
      "channels": [
        {
          "sampler": 0,
          "target": {
            "node": 3,
            "path": "rotation"
          }
        },
        {
          "sampler": 1,
          "target": {
            "node": 3,
            "path": "scale"
          }
        }
      ],
      "name": "Action",
      "samplers": [
        {
          "input": 16,
          "interpolation": "LINEAR",
          "output": 17
        },
        {
          "input": 18,
          "interpolation": "LINEAR",
          "output": 19
        }
      ]
    },
    {
      "channels": [
        {
          "sampler": 0,
          "target": {
            "node": 3,
            "path": "translation"
          }
        },
        {
          "sampler": 1,
          "target": {
            "node": 3,
            "path": "rotation"
          }
        }
      ],
      "name": "CameraAction",
      "samplers": [
        {
          "input": 20,
          "interpolation": "LINEAR",
          "output": 21
        },
        {
          "input": 22,
          "interpolation": "LINEAR",
          "output": 23
        }
      ]
    },
    {
      "channels": [
        {
          "sampler": 0,
          "target": {
            "node": 3,
            "path": "rotation"
          }
        }
      ],
      "name": "CircleAction",
      "samplers": [
        {
          "input": 24,
          "interpolation": "LINEAR",
          "output": 25
        }
      ]
    }
  ],
  "asset": {
    "extras": {
      "author": "lukus1 (https://sketchfab.com/lukus1)",
      "license": "CC-BY-4.0 (http://creativecommons.org/licenses/by/4.0/)",
      "source": "https://sketchfab.com/3d-models/spinning-hammer-from-fall-guys-dd8cc70b755a4af6a1937a36aef1ddcf",
      "title": "Spinning Hammer From Fall Guys"
    },
    "generator": "Sketchfab-12.67.0",
    "version": "2.0"
  },
  "bufferViews": [
    {
      "buffer": 0,
      "byteLength": 614400,
      "name": "floatBufferViews",
      "target": 34963
    },
    {
      "buffer": 0,
      "byteLength": 376368,
      "byteOffset": 614400,
      "byteStride": 8,
      "name": "floatBufferViews",
      "target": 34962
    },
    {
      "buffer": 0,
      "byteLength": 1129104,
      "byteOffset": 990768,
      "byteStride": 12,
      "name": "floatBufferViews",
      "target": 34962
    },
    {
      "buffer": 0,
      "byteLength": 680,
      "byteOffset": 2119872,
      "name": "floatBufferViews"
    },
    {
      "buffer": 0,
      "byteLength": 420,
      "byteOffset": 2120552,
      "byteStride": 12,
      "name": "floatBufferViews"
    },
    {
      "buffer": 0,
      "byteLength": 2160,
      "byteOffset": 2120972,
      "byteStride": 16,
      "name": "floatBufferViews"
    }
  ],
  "buffers": [
    {
      "byteLength": 2123132,
      "uri": "scene.bin"
    }
  ],
  "images": [
    {
      "uri": "textures/Texture_for_hammer_1_baseColor.jpeg"
    },
    {
      "uri": "textures/Texture_for_hammer_2_baseColor.png"
    }
  ],
  "materials": [
    {
      "doubleSided": true,
      "name": "Texture_for_hammer_1",
      "pbrMetallicRoughness": {
        "baseColorTexture": {
          "index": 0
        },
        "metallicFactor": 0.0
      }
    },
    {
      "doubleSided": true,
      "name": "Texture_for_hammer_2",
      "pbrMetallicRoughness": {
        "baseColorTexture": {
          "index": 1
        },
        "metallicFactor": 0.0
      }
    },
    {
      "doubleSided": true,
      "emissiveFactor": [
        0.0,
        0.291599,
        1.0
      ],
      "name": "Texture_for_hammer_3"
    },
    {
      "doubleSided": true,
      "name": "Texture_for_hammer_4",
      "pbrMetallicRoughness": {
        "baseColorFactor": [
          0.304982,
          0.304982,
          0.304982,
          1.0
        ],
        "metallicFactor": 0.0,
        "roughnessFactor": 0.5
      }
    }
  ],
  "meshes": [
    {
      "name": "Object_0",
      "primitives": [
        {
          "attributes": {
            "NORMAL": 1,
            "POSITION": 0,
            "TEXCOORD_0": 2
          },
          "indices": 3,
          "material": 0,
          "mode": 4
        }
      ]
    },
    {
      "name": "Object_1",
      "primitives": [
        {
          "attributes": {
            "NORMAL": 5,
            "POSITION": 4,
            "TEXCOORD_0": 6
          },
          "indices": 7,
          "material": 1,
          "mode": 4
        }
      ]
    },
    {
      "name": "Object_2",
      "primitives": [
        {
          "attributes": {
            "NORMAL": 9,
            "POSITION": 8,
            "TEXCOORD_0": 10
          },
          "indices": 11,
          "material": 2,
          "mode": 4
        }
      ]
    },
    {
      "name": "Object_3",
      "primitives": [
        {
          "attributes": {
            "NORMAL": 13,
            "POSITION": 12,
            "TEXCOORD_0": 14
          },
          "indices": 15,
          "material": 3,
          "mode": 4
        }
      ]
    }
  ],
  "nodes": [
    {
      "children": [
        1
      ],
      "matrix": [
        1.0,
        0.0,
        0.0,
        0.0,
        0.0,
        2.220446049250313e-16,
        -1.0,
        0.0,
        0.0,
        1.0,
        2.220446049250313e-16,
        0.0,
        0.0,
        0.0,
        0.0,
        1.0
      ],
      "name": "Sketchfab_model"
    },
    {
      "children": [
        2
      ],
      "name": "root"
    },
    {
      "children": [
        3
      ],
      "matrix": [
        1.0,
        0.0,
        0.0,
        0.0,
        0.0,
        2.220446049250313e-16,
        1.0,
        0.0,
        0.0,
        -1.0,
        2.220446049250313e-16,
        0.0,
        0.0,
        0.0,
        0.0,
        1.0
      ],
      "name": "GLTF_SceneRootNode"
    },
    {
      "children": [
        4,
        5,
        6,
        7
      ],
      "name": "Fall Guys Hammer_0",
      "rotation": [
        0.0,
        0.0,
        -0.991841733455658,
        0.12747539579868317
      ],
      "translation": [
        3.7172467708587646,
        0.7058494687080383,
        0.24309633672237396
      ]
    },
    {
      "mesh": 0,
      "name": "Object_4"
    },
    {
      "mesh": 1,
      "name": "Object_5"
    },
    {
      "mesh": 2,
      "name": "Object_6"
    },
    {
      "mesh": 3,
      "name": "Object_7"
    }
  ],
  "samplers": [
    {
      "magFilter": 9729,
      "minFilter": 9987,
      "wrapS": 10497,
      "wrapT": 10497
    }
  ],
  "scene": 0,
  "scenes": [
    {
      "name": "Sketchfab_Scene",
      "nodes": [
        0
      ]
    }
  ],
  "textures": [
    {
      "sampler": 0,
      "source": 0
    },
    {
      "sampler": 0,
      "source": 1
    }
  ]
}
